<svg width="60" height="60" viewBox="0 0 60 60" fill="none" xmlns="http://www.w3.org/2000/svg">
<path d="M20 17.5C20 20.1522 21.0536 22.6957 22.9289 24.5711C24.8043 26.4464 27.3478 27.5 30 27.5C32.6522 27.5 35.1957 26.4464 37.0711 24.5711C38.9464 22.6957 40 20.1522 40 17.5C40 14.8478 38.9464 12.3043 37.0711 10.4289C35.1957 8.55357 32.6522 7.5 30 7.5C27.3478 7.5 24.8043 8.55357 22.9289 10.4289C21.0536 12.3043 20 14.8478 20 17.5Z" stroke="black" stroke-width="2" stroke-linecap="round" stroke-linejoin="round"/>
<path d="M40 47.5H55" stroke="black" stroke-width="2" stroke-linecap="round" stroke-linejoin="round"/>
<path d="M47.5 40V55" stroke="black" stroke-width="2" stroke-linecap="round" stroke-linejoin="round"/>
<path d="M15 52.5V47.5C15 44.8478 16.0536 42.3043 17.9289 40.4289C19.8043 38.5536 22.3478 37.5 25 37.5H35" stroke="black" stroke-width="2" stroke-linecap="round" stroke-linejoin="round"/>
</svg>
