<svg width="30" height="30" viewBox="0 0 30 30" fill="none" xmlns="http://www.w3.org/2000/svg">
<path fill-rule="evenodd" clip-rule="evenodd" d="M23.5632 8.06314C24.0124 7.61404 24.0124 6.8859 23.5632 6.4368C23.1142 5.9877 22.386 5.9877 21.937 6.4368L15.0001 13.3736L8.06328 6.4368C7.61416 5.9877 6.88602 5.9877 6.43692 6.4368C5.98782 6.8859 5.98782 7.61404 6.43692 8.06314L13.3738 15L6.43692 21.9368C5.98782 22.386 5.98782 23.114 6.43692 23.5632C6.88602 24.0122 7.61416 24.0122 8.06328 23.5632L15.0001 16.6263L21.937 23.5632C22.386 24.0122 23.1142 24.0122 23.5632 23.5632C24.0124 23.114 24.0124 22.386 23.5632 21.9368L16.6264 15L23.5632 8.06314Z" fill="#F4F5F6"/>
</svg>
