<svg width="50" height="50" viewBox="0 0 50 50" fill="none" xmlns="http://www.w3.org/2000/svg">
<path d="M25.0001 20.8334H8.33341C6.03223 20.8334 4.16675 22.6989 4.16675 25V41.6667C4.16675 43.9679 6.03223 45.8334 8.33341 45.8334H25.0001C27.3013 45.8334 29.1667 43.9679 29.1667 41.6667V25C29.1667 22.6989 27.3013 20.8334 25.0001 20.8334Z" stroke="black" stroke-width="2" stroke-linecap="round" stroke-linejoin="round"/>
<path d="M37.3333 29.1667L44.6249 21.875C45.3979 21.0177 45.8257 19.9043 45.8257 18.75C45.8257 17.5957 45.3979 16.4823 44.6249 15.625L34.2083 5.37501C33.351 4.60202 32.2376 4.17419 31.0833 4.17419C29.9289 4.17419 28.8156 4.60202 27.9583 5.37501L20.8333 12.5" stroke="black" stroke-width="2" stroke-linecap="round" stroke-linejoin="round"/>
<path d="M12.5 37.5H12.5208" stroke="black" stroke-width="2" stroke-linecap="round" stroke-linejoin="round"/>
<path d="M20.8333 29.1666H20.8541" stroke="black" stroke-width="2" stroke-linecap="round" stroke-linejoin="round"/>
<path d="M31.25 12.5H31.2708" stroke="black" stroke-width="2" stroke-linecap="round" stroke-linejoin="round"/>
<path d="M37.5 18.75H37.5208" stroke="black" stroke-width="2" stroke-linecap="round" stroke-linejoin="round"/>
</svg>
