<svg width="100" height="100" viewBox="0 0 100 100" fill="none" xmlns="http://www.w3.org/2000/svg">
<path fill-rule="evenodd" clip-rule="evenodd" d="M52.0013 11.5022C55.1313 9.62051 59.2 9.5288 62.6742 12.0413C73.7613 20.0596 86.4583 34.3527 86.4583 54.6296C86.4583 70.4892 79.6442 80.6883 70.9688 86.8121C65.6388 90.5746 59.68 92.7538 54.3046 93.8571C52.3238 94.53 50.4167 94.7917 48.8888 94.7917C48.4608 94.7917 48.0042 94.775 47.5242 94.7392C46.8417 94.7746 46.1846 94.7917 45.5554 94.7917C39.4685 94.7917 30.4735 92.7738 22.9337 86.6913C15.2604 80.5013 9.375 70.3213 9.375 54.6296C9.375 41.81 16.1473 33.1881 22.5211 28.3258C25.1747 26.3016 28.3545 26.2679 30.8708 27.6417C33.3043 28.9703 35.0096 31.5315 35.3178 34.5397L35.6754 38.0306C35.8128 39.3724 36.4989 40.486 37.2157 41.0282C37.5521 41.2826 37.8251 41.3625 38.0068 41.3762C38.1601 41.3877 38.3984 41.367 38.7526 41.1368C41.4737 39.3685 43.54 36.1875 44.9304 32.4441C46.3075 28.7353 46.875 24.8607 46.875 22.2221V20.8736C46.875 16.8204 48.935 13.3453 52.0013 11.5022ZM52.6308 87.8188C50.8571 88.1646 49.1633 88.375 47.6133 88.4738C45.5971 88.2696 43.0563 87.5817 40.934 86.1263C38.4976 84.4558 36.4583 81.6934 36.4583 76.8517C36.4583 71.0088 40.0732 66.5713 43.9158 63.7288C43.9263 63.7713 43.9338 63.8238 43.9338 63.8888V63.9346C43.9338 64.8829 43.9338 66.3188 44.1125 67.8125C44.29 69.2975 44.6725 71.1242 45.6142 72.73C46.2704 73.8496 47.2796 74.7967 48.6492 75.2C49.9954 75.5967 51.2783 75.3471 52.2783 74.8746C54.1783 73.9771 55.5367 72.1025 56.1071 70.1258C57.8242 71.5246 59.375 73.7113 59.375 76.8517C59.375 81.8663 57.5104 84.6438 55.4683 86.2438C54.5729 86.9454 53.5933 87.4583 52.6308 87.8188ZM64.6567 83.4271C65.5767 82.9017 66.4821 82.3288 67.3646 81.7063C74.4296 76.7188 80.2083 68.3996 80.2083 54.6296C80.2083 37.1826 69.2829 24.534 59.0113 17.1057C57.6583 16.1273 56.3054 16.207 55.2213 16.8589C54.0729 17.5493 53.125 18.9698 53.125 20.8736V22.2221C53.125 25.5912 52.4296 30.2035 50.7892 34.62C49.1617 39.0018 46.4558 43.5846 42.1583 46.3775C39.0995 48.3654 35.8005 47.7942 33.4456 46.0129C31.2227 44.3317 29.756 41.5771 29.4579 38.6675L29.1003 35.1766C28.9928 34.1264 28.4236 33.4265 27.8757 33.1273C27.4104 32.8733 26.9019 32.8449 26.3118 33.295C21.0316 37.3231 15.625 44.2692 15.625 54.6296C15.625 68.5675 20.7581 76.9058 26.858 81.8271C28.5144 83.1633 30.2625 84.2634 32.0292 85.1588C30.891 82.8696 30.2083 80.1171 30.2083 76.8517C30.2083 68.0875 35.709 61.965 40.4086 58.5504C42.5454 56.9975 45.1138 57.0442 47.0746 58.2308C48.9675 59.3763 50.1838 61.495 50.1838 63.8888C50.1838 64.8671 50.1867 65.9725 50.3179 67.07C50.3396 67.25 50.3638 67.4225 50.3908 67.5875C51.0583 66.0517 52.285 64.8604 53.7375 64.2313C55.48 63.4758 57.6958 63.4908 59.5467 64.8829C62.4613 67.0746 65.625 71.0096 65.625 76.8517C65.625 79.3259 65.275 81.5108 64.6567 83.4271Z" fill="black"/>
</svg>
