<svg width="60" height="60" viewBox="0 0 60 60" fill="none" xmlns="http://www.w3.org/2000/svg">
<path fill-rule="evenodd" clip-rule="evenodd" d="M31.2008 6.90132C33.0788 5.77229 35.52 5.71727 37.6045 7.22477C44.2567 12.0357 51.875 20.6116 51.875 32.7777C51.875 42.2935 47.7865 48.413 42.5812 52.0872C39.3832 54.3447 35.808 55.6522 32.5828 56.3143C31.3943 56.718 30.25 56.875 29.3333 56.875C29.0765 56.875 28.8025 56.865 28.5145 56.8435C28.105 56.8647 27.7108 56.875 27.3333 56.875C23.6811 56.875 18.2841 55.6643 13.7602 52.0148C9.15625 48.3008 5.625 42.1927 5.625 32.7777C5.625 25.086 9.6884 19.9128 13.5127 16.9955C15.1048 15.7809 17.0127 15.7607 18.5224 16.585C19.9825 17.3822 21.0058 18.9189 21.1907 20.7238L21.4053 22.8184C21.4877 23.6234 21.8994 24.2916 22.3294 24.6169C22.5312 24.7696 22.695 24.8175 22.8041 24.8257C22.8961 24.8326 23.039 24.8202 23.2516 24.6821C24.8842 23.6211 26.124 21.7125 26.9583 19.4664C27.7845 17.2412 28.125 14.9164 28.125 13.3332V12.5242C28.125 10.0922 29.361 8.00719 31.2008 6.90132ZM31.5785 52.6912C30.5142 52.8988 29.498 53.025 28.568 53.0842C27.3583 52.9618 25.8337 52.549 24.5604 51.6757C23.0986 50.6735 21.875 49.016 21.875 46.111C21.875 42.6053 24.0439 39.9427 26.3495 38.2372C26.3557 38.2627 26.3602 38.2942 26.3602 38.3332V38.3607C26.3602 38.9297 26.3603 39.7912 26.4675 40.6875C26.574 41.5785 26.8035 42.6745 27.3685 43.638C27.7623 44.3097 28.3678 44.878 29.1895 45.12C29.9973 45.358 30.767 45.2082 31.367 44.9247C32.507 44.3862 33.322 43.2615 33.6642 42.0755C34.6945 42.9147 35.625 44.2267 35.625 46.111C35.625 49.1198 34.5063 50.7862 33.281 51.7463C32.7437 52.1672 32.156 52.475 31.5785 52.6912ZM38.794 50.0562C39.346 49.741 39.8892 49.3973 40.4187 49.0238C44.6577 46.0312 48.125 41.0397 48.125 32.7777C48.125 22.3096 41.5697 14.7204 35.4067 10.2634C34.595 9.67634 33.7833 9.72422 33.1328 10.1153C32.4438 10.5295 31.875 11.3818 31.875 12.5242V13.3332C31.875 15.3547 31.4577 18.1221 30.4735 20.772C29.497 23.4011 27.8735 26.1507 25.295 27.8265C23.4597 29.0192 21.4803 28.6765 20.0674 27.6077C18.7336 26.599 17.8536 24.9462 17.6748 23.2005L17.4602 21.1059C17.3956 20.4758 17.0542 20.0559 16.7254 19.8764C16.4462 19.724 16.1411 19.7069 15.7871 19.977C12.6189 22.3938 9.375 26.5615 9.375 32.7777C9.375 41.1405 12.4549 46.1435 16.1148 49.0962C17.1086 49.898 18.1575 50.558 19.2175 51.0953C18.5346 49.7218 18.125 48.0703 18.125 46.111C18.125 40.8525 21.4254 37.179 24.2451 35.1302C25.5273 34.1985 27.0683 34.2265 28.2448 34.9385C29.3805 35.6257 30.1102 36.897 30.1102 38.3332C30.1102 38.9202 30.112 39.5835 30.1908 40.242C30.2037 40.35 30.2182 40.4535 30.2345 40.5525C30.635 39.631 31.371 38.9162 32.2425 38.5387C33.288 38.0855 34.6175 38.0945 35.728 38.9297C37.4767 40.2448 39.375 42.6058 39.375 46.111C39.375 47.5955 39.165 48.9065 38.794 50.0562Z" fill="#FA8937"/>
</svg>
