<svg width="60" height="60" viewBox="0 0 60 60" fill="none" xmlns="http://www.w3.org/2000/svg">
<path d="M38.75 27.5C38.75 32.3325 34.8325 36.25 30 36.25C25.1675 36.25 21.25 32.3325 21.25 27.5C21.25 22.6675 25.1675 18.75 30 18.75C34.8325 18.75 38.75 22.6675 38.75 27.5Z" stroke="black" stroke-width="1.5"/>
<path d="M30 5C42.1765 5 52.5 15.0825 52.5 27.3145C52.5 39.7413 42.0083 48.4618 32.3175 54.3918C31.6113 54.7905 30.8125 55 30 55C29.1875 55 28.3887 54.7905 27.6825 54.3918C18.0097 48.404 7.5 39.7843 7.5 27.3145C7.5 15.0825 17.8236 5 30 5Z" stroke="black" stroke-width="1.5"/>
</svg>
