<svg width="67" height="67" viewBox="0 0 67 67" fill="none" xmlns="http://www.w3.org/2000/svg">
<path d="M13.8889 19.4445C13.8889 22.3913 15.0595 25.2175 17.1433 27.3012C19.227 29.3849 22.0532 30.5556 25 30.5556C27.9469 30.5556 30.773 29.3849 32.8568 27.3012C34.9405 25.2175 36.1111 22.3913 36.1111 19.4445C36.1111 16.4976 34.9405 13.6714 32.8568 11.5877C30.773 9.50397 27.9469 8.33334 25 8.33334C22.0532 8.33334 19.227 9.50397 17.1433 11.5877C15.0595 13.6714 13.8889 16.4976 13.8889 19.4445Z" stroke="black" stroke-width="2" stroke-linecap="round" stroke-linejoin="round"/>
<path d="M8.33325 58.3333V52.7778C8.33325 49.8309 9.50388 47.0048 11.5876 44.921C13.6714 42.8373 16.4975 41.6667 19.4444 41.6667H30.5555C33.5023 41.6667 36.3285 42.8373 38.4122 44.921C40.496 47.0048 41.6666 49.8309 41.6666 52.7778V58.3333" stroke="black" stroke-width="2" stroke-linecap="round" stroke-linejoin="round"/>
<path d="M44.4443 8.69446C46.8344 9.30641 48.9528 10.6964 50.4656 12.6453C51.9783 14.5942 52.7995 16.9912 52.7995 19.4583C52.7995 21.9255 51.9783 24.3225 50.4656 26.2714C48.9528 28.2203 46.8344 29.6103 44.4443 30.2222" stroke="black" stroke-width="2" stroke-linecap="round" stroke-linejoin="round"/>
<path d="M58.3333 58.3333V52.7778C58.3192 50.3255 57.4942 47.9467 55.9869 46.0122C54.4795 44.0778 52.3745 42.6964 50 42.0833" stroke="black" stroke-width="2" stroke-linecap="round" stroke-linejoin="round"/>
</svg>
